<?xml version="1.0" encoding="UTF-8" standalone="no"?>
<!-- Created with Inkscape (http://www.inkscape.org/) -->

<svg
   xmlns:dc="http://purl.org/dc/elements/1.1/"
   xmlns:cc="http://creativecommons.org/ns#"
   xmlns:rdf="http://www.w3.org/1999/02/22-rdf-syntax-ns#"
   xmlns:svg="http://www.w3.org/2000/svg"
   xmlns="http://www.w3.org/2000/svg"
   xmlns:sodipodi="http://sodipodi.sourceforge.net/DTD/sodipodi-0.dtd"
   xmlns:inkscape="http://www.inkscape.org/namespaces/inkscape"
   width="170"
   height="135"
   viewBox="0 0 44.979167 35.71875"
   version="1.1"
   id="svg8"
   inkscape:version="0.92.2 (5c3e80d, 2017-08-06)"
   sodipodi:docname="SpongeBob SquarePants2.svg">
  <defs
     id="defs2">
    <clipPath
       clipPathUnits="userSpaceOnUse"
       id="clipPath502">
      <path
         d="M 439.961,603.6 H 566 v 99.9 H 439.961 Z"
         id="path500"
         inkscape:connector-curvature="0" />
    </clipPath>
    <linearGradient
       x1="0"
       y1="0"
       x2="1"
       y2="0"
       gradientUnits="userSpaceOnUse"
       gradientTransform="matrix(84.82167,-29.886337,-29.886337,-84.82167,910.20131,1309.7718)"
       spreadMethod="pad"
       id="linearGradient492">
      <stop
         style="stop-opacity:1;stop-color:#76cdd9"
         offset="0"
         id="stop488" />
      <stop
         style="stop-opacity:1;stop-color:#00a3b0"
         offset="1"
         id="stop490" />
    </linearGradient>
    <linearGradient
       x1="0"
       y1="0"
       x2="1"
       y2="0"
       gradientUnits="userSpaceOnUse"
       gradientTransform="matrix(84.850311,-29.896439,-29.896439,-84.850311,904.21099,1292.6783)"
       spreadMethod="pad"
       id="linearGradient472">
      <stop
         style="stop-opacity:1;stop-color:#76cdd9"
         offset="0"
         id="stop468" />
      <stop
         style="stop-opacity:1;stop-color:#00a3b0"
         offset="1"
         id="stop470" />
    </linearGradient>
    <linearGradient
       x1="0"
       y1="0"
       x2="1"
       y2="0"
       gradientUnits="userSpaceOnUse"
       gradientTransform="matrix(84.772491,-29.868988,-29.868988,-84.772491,902.33049,1287.1944)"
       spreadMethod="pad"
       id="linearGradient452">
      <stop
         style="stop-opacity:1;stop-color:#76cdd9"
         offset="0"
         id="stop448" />
      <stop
         style="stop-opacity:1;stop-color:#00a3b0"
         offset="1"
         id="stop450" />
    </linearGradient>
    <linearGradient
       x1="0"
       y1="0"
       x2="1"
       y2="0"
       gradientUnits="userSpaceOnUse"
       gradientTransform="matrix(84.825439,-29.88768,-29.88768,-84.825439,911.2078,1312.8697)"
       spreadMethod="pad"
       id="linearGradient432">
      <stop
         style="stop-opacity:1;stop-color:#76cdd9"
         offset="0"
         id="stop428" />
      <stop
         style="stop-opacity:1;stop-color:#00a3b0"
         offset="1"
         id="stop430" />
    </linearGradient>
    <linearGradient
       x1="0"
       y1="0"
       x2="1"
       y2="0"
       gradientUnits="userSpaceOnUse"
       gradientTransform="matrix(84.689255,-29.83963,-29.83963,-84.689255,906.92172,1300.2765)"
       spreadMethod="pad"
       id="linearGradient412">
      <stop
         style="stop-opacity:1;stop-color:#b1ded3"
         offset="0"
         id="stop408" />
      <stop
         style="stop-opacity:1;stop-color:#29bdbe"
         offset="1"
         id="stop410" />
    </linearGradient>
    <clipPath
       clipPathUnits="userSpaceOnUse"
       id="clipPath338">
      <path
         d="M 439.961,603.6 H 566 v 99.9 H 439.961 Z"
         id="path336"
         inkscape:connector-curvature="0" />
    </clipPath>
    <clipPath
       clipPathUnits="userSpaceOnUse"
       id="clipPath502-1">
      <path
         d="M 439.961,603.6 H 566 v 99.9 H 439.961 Z"
         id="path500-3"
         inkscape:connector-curvature="0" />
    </clipPath>
    <linearGradient
       x1="0"
       y1="0"
       x2="1"
       y2="0"
       gradientUnits="userSpaceOnUse"
       gradientTransform="matrix(87.194648,-22.022765,-22.022765,-87.194648,915.34773,606.11405)"
       spreadMethod="pad"
       id="linearGradient492-1">
      <stop
         style="stop-opacity:1;stop-color:#76cdd9"
         offset="0"
         id="stop488-8" />
      <stop
         style="stop-opacity:1;stop-color:#00a3b0"
         offset="1"
         id="stop490-0" />
    </linearGradient>
    <linearGradient
       x1="0"
       y1="0"
       x2="1"
       y2="0"
       gradientUnits="userSpaceOnUse"
       gradientTransform="matrix(87.224091,-22.030212,-22.030212,-87.224091,910.94196,588.54531)"
       spreadMethod="pad"
       id="linearGradient472-0">
      <stop
         style="stop-opacity:1;stop-color:#76cdd9"
         offset="0"
         id="stop468-4" />
      <stop
         style="stop-opacity:1;stop-color:#00a3b0"
         offset="1"
         id="stop470-2" />
    </linearGradient>
    <linearGradient
       x1="0"
       y1="0"
       x2="1"
       y2="0"
       gradientUnits="userSpaceOnUse"
       gradientTransform="matrix(87.144091,-22.009975,-22.009975,-87.144091,909.56964,582.91269)"
       spreadMethod="pad"
       id="linearGradient452-8">
      <stop
         style="stop-opacity:1;stop-color:#76cdd9"
         offset="0"
         id="stop448-6" />
      <stop
         style="stop-opacity:1;stop-color:#00a3b0"
         offset="1"
         id="stop450-9" />
    </linearGradient>
    <linearGradient
       x1="0"
       y1="0"
       x2="1"
       y2="0"
       gradientUnits="userSpaceOnUse"
       gradientTransform="matrix(87.198524,-22.023759,-22.023759,-87.198524,916.06738,609.2908)"
       spreadMethod="pad"
       id="linearGradient432-7">
      <stop
         style="stop-opacity:1;stop-color:#76cdd9"
         offset="0"
         id="stop428-0" />
      <stop
         style="stop-opacity:1;stop-color:#00a3b0"
         offset="1"
         id="stop430-5" />
    </linearGradient>
    <linearGradient
       x1="0"
       y1="0"
       x2="1"
       y2="0"
       gradientUnits="userSpaceOnUse"
       gradientTransform="matrix(87.058524,-21.988334,-21.988334,-87.058524,912.94815,596.3591)"
       spreadMethod="pad"
       id="linearGradient412-9">
      <stop
         style="stop-opacity:1;stop-color:#b1ded3"
         offset="0"
         id="stop408-9" />
      <stop
         style="stop-opacity:1;stop-color:#29bdbe"
         offset="1"
         id="stop410-7" />
    </linearGradient>
    <clipPath
       clipPathUnits="userSpaceOnUse"
       id="clipPath338-6">
      <path
         d="M 439.961,603.6 H 566 v 99.9 H 439.961 Z"
         id="path336-6"
         inkscape:connector-curvature="0" />
    </clipPath>
  </defs>
  <sodipodi:namedview
     id="base"
     pagecolor="#ffffff"
     bordercolor="#666666"
     borderopacity="1.0"
     inkscape:pageopacity="0.0"
     inkscape:pageshadow="2"
     inkscape:zoom="2.8"
     inkscape:cx="70.266636"
     inkscape:cy="50.416833"
     inkscape:document-units="mm"
     inkscape:current-layer="layer1"
     showgrid="false"
     units="px"
     inkscape:window-width="1366"
     inkscape:window-height="705"
     inkscape:window-x="-8"
     inkscape:window-y="-8"
     inkscape:window-maximized="1"
     inkscape:measure-start="-762.665,76.7716"
     inkscape:measure-end="-249.508,82.8325" />
  <metadata
     id="metadata5">
    <rdf:RDF>
      <cc:Work
         rdf:about="">
        <dc:format>image/svg+xml</dc:format>
        <dc:type
           rdf:resource="http://purl.org/dc/dcmitype/StillImage" />
        <dc:title />
      </cc:Work>
    </rdf:RDF>
  </metadata>
  <g
     inkscape:label="Layer 1"
     inkscape:groupmode="layer"
     id="layer1"
     transform="translate(0,-261.28124)">
    <g
       id="g1576"
       transform="rotate(6.3577547,15.696299,267.10987)">
      <g
         transform="matrix(0.35277777,0,0,-0.35277777,22.973122,264.28683)"
         id="g340">
        <path
           inkscape:connector-curvature="0"
           id="path342"
           style="fill:#f68b1f;fill-opacity:1;fill-rule:nonzero;stroke:none"
           d="M 0,0 C 0.503,-0.503 1.134,-0.651 1.674,-0.146 2.827,0.933 3.229,2.395 4.081,3.676 4.593,4.451 5.245,5.124 5.68,5.951 6.131,6.808 6.056,7.969 4.772,7.834 3.959,7.751 3.677,6.827 3.42,6.192 2.841,4.753 1.331,4.711 0.461,3.556 -0.19,2.693 -0.908,0.97 -0.044,0.046 -0.028,0.029 -0.013,0.016 0,0 m -42.121,-10.078 c -1.576,-0.072 0.465,-3.949 1.045,-2.554 0.156,0.377 -0.309,1.146 -0.402,1.517 -0.07,0.283 -0.212,1.056 -0.643,1.037 m 39.856,1.432 c 0.432,-0.134 0.967,-0.06 1.669,0.356 2.192,1.32 1.755,5.138 3.897,6.393 1.65,0.963 3.192,-0.623 2.746,-2.255 -0.424,-1.546 -2.623,-1.872 -2.69,-3.603 -0.109,-2.846 3.209,-2.369 4.901,-3.041 2.014,-0.8 2.28,-2.486 2.482,-4.484 0.167,-1.662 0.95,-3.184 1.992,-4.412 1.116,-1.32 4.131,-2.578 4.155,-4.683 0.013,-1.201 -0.798,-1.419 -1.733,-1.806 -1.237,-0.514 -0.628,-1.595 -1.541,-2.262 -0.461,-0.334 -1.105,-0.657 -1.311,-1.23 -0.274,-0.77 0.552,-1.215 0.429,-1.843 -0.3,-1.528 -3.368,-0.486 -4.226,-0.648 -1.865,-0.348 -2.027,-1.864 -3.182,-2.937 -0.885,-0.822 -3.97,-1.217 -4.21,-2.715 -0.414,-2.549 4.148,-2.203 5.604,-2.506 1.529,-0.315 2.76,-1.187 3.957,-2.125 0.712,-0.554 2.015,-1.065 2.577,-1.583 2.857,-2.633 -3.212,-2.507 -4.923,-1.884 -2.864,1.043 -3.666,3.97 -6.491,4.843 -2.299,0.706 -4.271,-0.669 -6.174,-1.758 -2.053,-1.17 -4.032,-1.162 -6.464,-1.518 -2.342,-0.338 -6.232,-0.085 -7.12,-2.333 -0.284,-0.724 0.274,-1.524 -0.089,-2.279 -0.443,-0.909 -1.607,-0.976 -2.24,-1.693 -0.355,-0.397 -0.642,-1.067 -0.732,-1.566 -0.249,-1.391 -0.592,-2.52 -0.775,-2.126 -5.814,10.026 -5.912,-2.821 -7.405,-4.563 -1.555,-1.814 -2.031,-1.074 -1.768,-3.616 0.102,-0.998 0.133,-2.579 -0.407,-3.459 -0.353,-0.578 -0.951,-0.371 -1.365,0.104 -0.49,0.559 -0.244,1.568 -0.089,2.214 0.276,1.17 0.557,2.211 0.556,3.442 -0.004,2.355 -0.152,3.208 -2.594,4.351 -1.622,0.756 -3.341,1.28 -5.231,1.303 -2.988,0.034 -3.698,-1.755 -4.784,-4.499 -0.995,-2.513 -2.311,-4.79 -3.435,-7.096 -0.659,-1.353 -0.912,-2.987 -1.408,-4.413 -0.169,-0.492 -0.301,-1.146 -0.898,-1.243 -0.607,-0.099 -1.397,0.43 -1.577,1 -0.246,0.76 0.28,1.822 0.686,2.428 0.955,1.42 2.601,2.459 3.056,4.182 0.47,1.768 0.269,3.157 1.136,4.834 0.828,1.608 1.76,3.1 2.799,4.573 1.359,1.926 1.525,2.427 0.758,4.483 -0.351,0.944 -0.754,3.63 -2.015,3.735 -1.509,0.133 -3.013,-2.495 -3.78,-3.488 -0.545,-0.707 -1.082,-1.488 -1.802,-2.027 -0.772,-0.582 -2.007,-0.046 -1.811,1.051 0.147,0.833 0.997,1.41 1.71,1.742 0.795,0.371 1.262,0.657 1.766,1.42 0.875,1.321 1.542,3.405 0.667,4.888 -1.1,1.859 -3.894,0.987 -4.964,2.883 -0.629,1.109 -0.035,1.756 -0.14,2.988 -0.105,1.219 -1.238,2.153 -1.37,3.26 -0.324,2.714 2.466,4.292 0.578,7.102 -0.581,0.864 -1.165,1.06 -1.426,2.122 -0.145,0.596 0.333,1.438 0.179,2.148 -0.303,1.389 -1.665,3.615 -6.028,4.126 -1.493,0.176 -3.51,3.094 -1.131,3.701 1.428,0.36 3.994,-1.342 5.05,-2.381 2.395,-2.357 4.72,-4.027 6.225,-3.938 3.301,0.193 9.099,2.936 11.093,5.58 3.337,4.428 1.774,8.666 1.814,9.893 0.034,0.993 0.612,1.705 0.648,2.748 0.085,2.31 -1.721,4.829 -1.086,7.454 1.291,5.36 4.406,-2.538 3.756,-4.562 -0.533,-1.658 -1.303,-2.494 -1.214,-4.351 0.095,-1.96 0.302,-7.957 2.998,-8.427 2.282,-0.399 1.13,3.818 2.207,4.827 2.864,2.687 3.846,-3.112 5.99,-3.22 1.202,-0.065 1.53,0.827 2.814,0.004 1.374,-0.884 1.562,-2.542 3.077,-3.481 1.455,-0.897 2.915,-1.366 4.639,-1.101 2.509,0.385 4.331,2.028 5.736,4.047 1.107,1.592 1.409,5.132 3.299,5.929 2.143,0.907 2.361,-2.497 3.983,-2.999" />
      </g>
      <g
         transform="matrix(0.35277777,0,0,-0.35277777,25.67607,270.03238)"
         id="g344">
        <path
           inkscape:connector-curvature="0"
           id="path346"
           style="fill:#ffffff;fill-opacity:1;fill-rule:nonzero;stroke:none"
           d="M 0,0 C 0.348,-2.182 0.424,-4.292 0.521,-6.397 0.579,-6.591 0.75,-6.745 0.698,-6.973 0.238,-7.4 -0.555,-7.471 -1.145,-7.345 c -0.744,0.975 -1.202,2.155 -1.899,3.14 l 0.327,-3.702 C -2.721,-8.14 -2.815,-8.37 -3.061,-8.434 -3.52,-8.523 -4.238,-8.81 -4.552,-8.34 c -0.185,2.357 -0.507,4.741 -0.438,7.035 0.002,0.447 0.478,0.367 0.757,0.495 0.573,0.01 1.266,0.026 1.598,-0.575 0.411,-0.532 0.739,-1.124 1.076,-1.69 l 0.071,0.112 c -0.118,1.005 -0.27,2.014 -0.218,2.964 0.386,0.385 1.038,0.281 1.511,0.242 z" />
      </g>
      <g
         transform="matrix(0.35277777,0,0,-0.35277777,21.70411,271.28478)"
         id="g348">
        <path
           inkscape:connector-curvature="0"
           id="path350"
           style="fill:#ffffff;fill-opacity:1;fill-rule:nonzero;stroke:none"
           d="m 0,0 c 0.103,-0.586 0.293,-1.249 -0.116,-1.681 -0.77,-0.291 -1.658,-0.403 -2.38,-0.766 0.179,-0.134 0.56,-0.069 0.61,-0.361 0.107,-0.185 -0.087,-0.49 0.206,-0.543 0.575,0.147 1.134,0.46 1.755,0.439 0.312,-0.464 0.218,-1.152 0.151,-1.686 l -0.214,-0.2 -1.665,-0.499 -0.083,-0.127 c 0.007,-0.273 -0.061,-0.627 0.152,-0.853 l 1.816,0.531 C 0.436,-5.801 0.466,-6.038 0.526,-6.204 0.6,-6.613 0.586,-6.994 0.475,-7.365 L 0.159,-7.58 -2.319,-8.333 c -0.434,0.005 -0.875,0.394 -1.086,0.734 l -0.197,1.501 c -0.225,0.095 -0.468,0.19 -0.498,0.48 0.035,0.553 -0.341,1.348 0.355,1.596 0.119,0.315 -0.02,0.699 -0.024,1.051 -0.174,0.15 -0.494,-0.108 -0.597,0.169 0.065,0.626 -0.464,1.568 0.306,1.862 1.105,0.437 2.285,0.781 3.467,1.108 C -0.375,0.213 -0.05,0.295 0,0" />
      </g>
      <g
         transform="matrix(0.35277777,0,0,-0.35277777,22.885422,271.39827)"
         id="g352">
        <path
           inkscape:connector-curvature="0"
           id="path354"
           style="fill:#ffffff;fill-opacity:1;fill-rule:nonzero;stroke:none"
           d="m 0,0 c -0.309,-0.593 -0.747,-1.185 -0.734,-1.879 0.009,-0.756 -0.09,-1.902 0.697,-2.299 0.224,-0.063 0.36,0.122 0.47,0.295 C 0.878,-2.724 0.685,-1.071 0,0 M 1.984,0.862 C 2.891,-1.342 3.198,-4.12 1.34,-5.853 0.814,-6.292 -0.045,-6.494 -0.714,-6.259 c -1.536,0.604 -2.003,2.277 -2.051,3.852 -0.049,1.411 0.424,2.946 1.661,3.829 0.201,0.136 0.484,0.217 0.745,0.206 C -0.164,1.474 -0.242,1.135 -0.051,0.969 0.265,1.351 0.411,2.17 1.05,2.006 1.511,1.735 1.716,1.256 1.984,0.862" />
      </g>
      <g
         transform="matrix(0.35277777,0,0,-0.35277777,15.536179,273.44272)"
         id="g356">
        <path
           inkscape:connector-curvature="0"
           id="path358"
           style="fill:#ffffff;fill-opacity:1;fill-rule:nonzero;stroke:none"
           d="M 0,0 C 0.165,-1.756 0.108,-3.456 0.354,-5.24 L 0.445,-5.302 C 1.106,-5.15 1.7,-4.847 2.339,-4.732 2.607,-4.983 2.498,-5.389 2.567,-5.726 2.56,-6.032 2.591,-6.349 2.43,-6.628 L 2.078,-6.845 -0.051,-7.487 c -0.575,0.126 -1.141,0.636 -1.441,1.117 -0.316,2.116 -0.303,4.149 -0.327,6.192 0.383,0.334 0.979,0.319 1.494,0.36 C -0.219,0.144 -0.045,0.141 0,0" />
      </g>
      <g
         transform="matrix(0.35277777,0,0,-0.35277777,18.663201,272.8472)"
         id="g360">
        <path
           inkscape:connector-curvature="0"
           id="path362"
           style="fill:#ffffff;fill-opacity:1;fill-rule:nonzero;stroke:none"
           d="M 0,0 C 0.346,-0.007 0.776,-0.002 0.941,-0.387 1.095,-1.46 1.076,-2.54 1.258,-3.603 1.977,-3.276 2.241,-2.391 2.291,-1.674 2.262,-1.045 2.098,-0.343 1.5,0.009 1.06,0.263 0.464,0.233 0,0 M 3.428,0.974 C 4.474,-0.343 4.288,-2.329 3.637,-3.738 2.931,-4.849 2,-5.891 0.641,-5.935 0.186,-5.659 -0.452,-5.52 -0.7,-4.993 c -0.278,1.394 -0.218,2.775 -0.331,4.163 -0.015,0.078 -0.145,0.172 -0.206,0.071 -0.131,-0.105 -0.242,-0.259 -0.452,-0.239 l -0.095,0.122 c 0.081,0.706 -0.463,1.677 0.378,2.087 1.361,0.941 3.708,1.355 4.834,-0.237" />
      </g>
      <g
         transform="matrix(0.35277777,0,0,-0.35277777,14.675577,273.70039)"
         id="g364">
        <path
           inkscape:connector-curvature="0"
           id="path366"
           style="fill:#ffffff;fill-opacity:1;fill-rule:nonzero;stroke:none"
           d="m 0,0 c 0.189,-0.508 0.13,-1.044 0.082,-1.538 l -0.273,-0.207 c -0.781,-0.205 -1.556,-0.45 -2.292,-0.726 0.156,-0.13 0.424,-0.086 0.589,-0.251 0.091,-0.225 -0.037,-0.578 0.21,-0.645 0.592,0.146 1.108,0.439 1.752,0.435 0.23,-0.209 0.2,-0.612 0.24,-0.912 0.007,-0.305 0.017,-0.621 -0.14,-0.895 -0.597,-0.239 -1.244,-0.375 -1.835,-0.613 -0.145,-0.267 -0.05,-0.567 -0.036,-0.858 0.1,-0.191 0.328,0 0.485,0.005 0.498,0.143 0.967,0.407 1.505,0.425 0.383,-0.38 0.287,-1.038 0.244,-1.511 L 0.338,-7.518 -2.203,-8.365 c -0.494,-0.051 -0.96,0.337 -1.221,0.721 -0.104,0.485 -0.136,1.013 -0.202,1.508 -0.132,0.184 -0.453,0.062 -0.448,0.367 -0.108,0.495 -0.17,0.984 -0.056,1.436 0.09,0.193 0.385,0.135 0.42,0.401 -0.102,0.335 0.084,0.694 -0.172,0.982 -0.212,-0.061 -0.503,-0.109 -0.552,0.179 0.023,0.607 -0.337,1.426 0.298,1.763 1.084,0.44 2.234,0.771 3.391,1.098 C -0.488,0.111 -0.122,0.3 0,0" />
      </g>
      <g
         transform="matrix(0.35277777,0,0,-0.35277777,17.183192,273.34366)"
         id="g368">
        <path
           inkscape:connector-curvature="0"
           id="path370"
           style="fill:#ffffff;fill-opacity:1;fill-rule:nonzero;stroke:none"
           d="m 0,0 c -0.464,-0.612 -0.738,-1.265 -0.753,-1.984 0.007,-0.37 0.416,-1.995 0.722,-2.133 0.237,-0.045 0.368,0.167 0.483,0.359 C 0.816,-2.622 0.682,-1.031 0,0 M 1.959,0.944 C 2.776,-1.093 3.132,-3.582 1.746,-5.4 1.222,-5.983 0.464,-6.44 -0.386,-6.281 c -1.234,0.217 -1.961,1.366 -2.204,2.504 -0.343,1.932 -0.23,3.968 1.419,5.234 0.239,0.111 0.5,0.311 0.796,0.226 C -0.208,1.52 -0.232,1.255 -0.107,1.072 0.282,1.397 0.391,2.294 1.037,2.062 1.483,1.802 1.71,1.353 1.959,0.944" />
      </g>
      <g
         transform="matrix(0.35277777,0,0,-0.35277777,8.3272708,275.10984)"
         id="g372">
        <path
           inkscape:connector-curvature="0"
           id="path374"
           style="fill:#ffffff;fill-opacity:1;fill-rule:nonzero;stroke:none"
           d="M 0,0 C 0.173,-1.56 0.137,-3.079 0.291,-4.642 L 0.534,-8.634 C 0.603,-8.886 0.885,-9.081 0.722,-9.365 0.251,-9.733 -0.524,-9.874 -1.091,-9.733 l -0.3,0.3 c -0.795,1.446 -1.59,2.891 -2.386,4.343 l -0.046,-0.206 0.511,-5.312 c 0.005,-0.248 -0.199,-0.375 -0.386,-0.47 -0.519,-0.158 -1.231,-0.385 -1.64,0.013 l -0.122,0.361 c -0.323,2.937 -0.527,5.853 -0.601,8.721 0,0.194 0.067,0.413 0.241,0.509 0.675,0.245 1.42,0.203 2.046,-0.021 0.725,-0.904 1.326,-1.883 1.868,-2.904 l 0.058,0.126 -0.123,3.719 c 0.006,0.225 0.118,0.448 0.341,0.542 C -1.12,0.111 -0.389,0.43 0,0" />
      </g>
      <g
         transform="matrix(0.35277777,0,0,-0.35277777,13.014241,274.32386)"
         id="g376">
        <path
           inkscape:connector-curvature="0"
           id="path378"
           style="fill:#ffffff;fill-opacity:1;fill-rule:nonzero;stroke:none"
           d="m 0,0 c 0.09,-1.66 -0.281,-3.353 -1.56,-4.574 0.779,-0.779 1.718,-1.475 2.417,-2.307 0.103,-0.586 -0.5,-0.971 -0.869,-1.297 -0.52,-0.342 -0.797,0.361 -1.163,0.563 l -1.5,1.46 -0.045,-0.192 c 0.087,-0.647 0.171,-1.281 0.129,-1.89 -0.203,-0.33 -0.748,-0.262 -1.111,-0.324 -0.258,0.035 -0.589,-0.086 -0.755,0.199 l -0.424,6.299 c 0.018,0.354 -0.077,0.722 0.066,1.042 0.445,0.282 1.168,0.43 1.677,0.264 0.291,-0.455 0.102,-1.003 0.198,-1.52 0.01,-0.293 -0.032,-0.585 0.023,-0.893 l 0.092,-0.063 c 1.004,0.836 0.947,2.087 1.14,3.198 0.223,0.227 0.634,0.199 0.936,0.236 C -0.477,0.201 -0.204,0.184 0,0" />
      </g>
      <g
         transform="matrix(0.35277777,0,0,-0.35277777,11.033711,275.1175)"
         id="g380">
        <path
           inkscape:connector-curvature="0"
           id="path382"
           style="fill:#ffffff;fill-opacity:1;fill-rule:nonzero;stroke:none"
           d="m 0,0 c 0.284,-0.496 0.547,-1.178 0.307,-1.74 -0.304,-0.419 -0.831,-0.59 -1.32,-0.581 -0.387,0.177 -0.008,0.954 -0.566,0.778 -0.487,-0.842 -0.347,-1.818 -0.297,-2.774 0.136,-0.39 0.112,-0.907 0.499,-1.1 0.591,0.175 0.196,0.829 0.552,1.19 0.32,0.324 0.847,0.561 1.312,0.412 0.284,-0.243 0.271,-0.746 0.286,-1.093 -0.06,-0.851 -0.37,-1.817 -1.158,-2.325 -0.396,-0.274 -0.906,-0.471 -1.423,-0.44 -1.589,0.454 -1.865,2.179 -2.057,3.693 -0.033,1.584 0.298,3.549 1.963,4.292 C -1.269,0.625 -0.448,0.602 0,0" />
      </g>
      <g
         transform="matrix(0.35277777,0,0,-0.35277777,9.4529847,275.54235)"
         id="g384">
        <path
           inkscape:connector-curvature="0"
           id="path386"
           style="fill:#ffffff;fill-opacity:1;fill-rule:nonzero;stroke:none"
           d="m 0,0 0.081,-0.825 0.38,-6.262 c -0.39,-0.51 -1.271,-0.56 -1.841,-0.395 -0.37,0.242 -0.182,0.727 -0.324,1.113 -0.126,1.998 -0.314,4.051 -0.235,6.095 0.319,0.46 1.04,0.539 1.606,0.513 C -0.215,0.192 -0.025,0.156 0,0" />
      </g>
      <g
         transform="matrix(0.35277777,0,0,-0.35277777,26.645362,271.81599)"
         id="g388">
        <path
           inkscape:connector-curvature="0"
           id="path390"
           style="fill:#ffffff;fill-opacity:1;fill-rule:nonzero;stroke:none"
           d="M 0,0 0.562,-0.907 0.698,0.15 1.091,0.234 1.387,-1.138 1.136,-1.191 0.898,-0.084 0.756,-1.273 0.539,-1.319 l -0.623,1.023 0.236,-1.107 -0.251,-0.053 -0.294,1.372 z m -1.614,-0.589 -0.049,0.23 1.172,0.252 0.049,-0.229 -0.45,-0.098 0.246,-1.142 -0.272,-0.058 -0.246,1.142 z" />
      </g>
    </g>
    <g
       id="g1671"
       transform="rotate(5.5813372,18.030248,284.90089)">
      <g
         transform="matrix(0.35277777,0,0,-0.35277777,24.46576,280.29289)"
         id="g392">
        <path
           inkscape:connector-curvature="0"
           id="path394"
           style="fill:#005da3;fill-opacity:1;fill-rule:nonzero;stroke:none"
           d="m 0,0 c -3.251,-2.167 -7.906,-2.937 -12.291,-2.109 -1.997,0.377 -4.826,1.603 -6.58,3.014 -1.408,1.137 -2.394,2.18 -4.533,3.235 -3.524,1.743 -8.955,1.607 -12.398,-0.143 -2.733,-1.389 -5.878,-4.038 -6.963,-7.052 -1.186,-3.293 -1.057,-6.414 -5.778,-8.976 -3.839,-2.085 -3.729,-5.661 -3.388,-7.784 0.64,-3.971 5.031,-7.212 7.257,-8.167 2.933,-1.256 3.351,-4.106 2.945,-8.197 -0.243,-2.432 0.492,-4.813 2.01,-6.531 1.216,-1.372 3.446,-3.811 7.73,-3.965 7.108,-0.261 11.468,5.661 15.539,5.982 3.253,0.263 11.509,-3.856 11.509,-3.856 6.218,-2.764 10.523,0.392 12.386,1.876 1.397,1.116 4.591,6.451 12.926,6.753 8.414,0.306 15.593,-2.594 17.599,-2.883 3.691,-0.53 9.065,-0.572 11.157,4.424 0.958,2.293 1.148,4.123 0.669,5.726 -0.469,1.565 -2.806,4.926 -2.615,7.855 0.118,1.758 0.974,4.712 3.5,6.771 0.926,0.755 4.416,2.91 5.412,4.461 2.253,3.519 1.478,8.15 -1.165,11.235 -2.209,2.578 -6.471,3.796 -12.963,2.629 -5.143,-0.923 -7.969,-1.18 -9.741,3.317 -1.585,4.026 -4.956,9.36 -10.57,9.398 C 13.083,17.07 8.217,11.51 5.691,7.079 3.764,3.7 3.004,2.007 0,0" />
      </g>
      <g
         id="g396"
         transform="matrix(0.35277777,0,0,-0.35277777,-154.95084,509.69863)">
        <g
           id="g398">
          <g
             id="g404">
            <g
               id="g406">
              <path
                 inkscape:connector-curvature="0"
                 id="path414"
                 style="fill:url(#linearGradient412-9);stroke:none"
                 d="m 529.385,665.725 c -6.499,-0.466 -10.781,-4.571 -13.203,-7.825 v 0 c -2.58,-3.464 -3.023,-6.183 -7.92,-9.061 v 0 c -4.121,-2.421 -8.962,-2.728 -12.973,-1.718 v 0 c -6.981,1.757 -6.702,4.039 -10.861,5.751 v 0 c -5.847,2.406 -14.233,-0.204 -17.213,-5.399 v 0 c -2.172,-3.785 -0.878,-6.759 -6.263,-9.747 v 0 c -7.954,-4.41 -0.495,-12.375 2.459,-13.639 v 0 c 5.287,-2.266 4.882,-3.211 4.677,-9.82 v 0 c -0.107,-3.412 1.875,-8.953 8.579,-9.112 v 0 c 6.151,-0.148 10.696,4.139 13.729,5.158 v 0 c 3.49,1.173 6.762,-0.028 12.524,-2.651 v 0 c 5.508,-2.502 9.574,-0.959 12.446,1.65 v 0 c 2.422,2.196 3.688,4.767 10.794,6.256 v 0 c 7.667,1.612 15.968,-1.951 20.603,-2.665 v 0 c 3.765,-0.58 8.193,-0.775 10.126,5.015 v 0 c 1.218,3.648 -3.032,7.955 -2.25,12.366 v 0 c 0.714,4.036 2.491,6.382 5.974,8.556 v 0 c 5.342,3.335 4.682,11.679 -1.235,14.028 v 0 c -3.461,1.373 -8.63,0.579 -12.466,0.035 v 0 c -3.988,-0.57 -6.109,1.64 -6.98,3.752 v 0 c -1.63,3.952 -4.544,9.092 -9.926,9.092 v 0 c -0.203,0 -0.41,-0.007 -0.621,-0.022" />
            </g>
          </g>
        </g>
      </g>
      <g
         id="g416"
         transform="matrix(0.35277777,0,0,-0.35277777,-154.95084,509.69863)">
        <g
           id="g418">
          <g
             id="g424">
            <g
               id="g426">
              <path
                 inkscape:connector-curvature="0"
                 id="path434"
                 style="fill:url(#linearGradient432-7);stroke:none"
                 d="m 546.912,652.903 c -1.032,-0.147 -1.939,-0.107 -2.733,0.067 v 0 c -2.394,-1.99 -4.967,-4.172 -5.376,-6.309 v 0 c -0.983,-5.101 3.912,-7.813 5.656,-11.259 v 0 c 3.842,-7.599 -1.234,-13.834 -5.265,-20.659 v 0 c 1.93,-0.47 3.718,-0.975 5.275,-1.36 v 0 c 0.67,0.845 1.557,1.704 2.704,2.578 v 0 c 4.913,3.758 7.379,6.617 8.233,9.219 v 0 c -0.607,1.664 -1.073,3.375 -0.767,5.104 v 0 c 0.056,0.311 0.117,0.611 0.183,0.901 v 0 c -0.711,1.58 -1.777,3.255 -3.011,5.165 v 0 c -4.039,6.253 -1.039,11.772 2.681,17.283 v 0 c -0.009,0 -0.017,0 -0.026,0 v 0 c -2.564,0 -5.292,-0.409 -7.554,-0.73" />
            </g>
          </g>
        </g>
      </g>
      <g
         id="g436"
         transform="matrix(0.35277777,0,0,-0.35277777,-154.95084,509.69863)">
        <g
           id="g438">
          <g
             id="g444">
            <g
               id="g446">
              <path
                 inkscape:connector-curvature="0"
                 id="path454"
                 style="fill:url(#linearGradient452-8);stroke:none"
                 d="m 468.899,640.183 c -0.326,-0.78 -0.66,-1.439 -0.97,-2.012 v 0 c -1.461,0.609 -2.696,1.355 -3.687,2.227 v 0 c -0.687,-0.905 -1.694,-1.786 -3.29,-2.672 v 0 c -1.753,-0.971 -2.755,-2.114 -3.225,-3.319 v 0 c 0.324,-0.218 0.652,-0.436 0.984,-0.655 v 0 c 4.956,-3.225 4.834,-5.841 2.775,-8.384 v 0 c 0.711,-0.604 1.389,-1.054 1.925,-1.281 v 0 c 1.011,-0.434 1.814,-0.82 2.451,-1.206 v 0 c 2.475,2.709 4.369,5.632 5.307,8.17 v 0 c 3.732,-2.35 7.943,-5.313 6.5,-8.738 v 0 c -1.613,-3.832 -8.313,-5.926 -9.434,-9.974 v 0 c 0.579,-3.245 2.891,-7.053 8.432,-7.184 v 0 c 1.074,-0.028 2.096,0.085 3.074,0.288 v 0 c -2.176,1.834 -4.066,3.746 -3.254,6.363 v 0 c 1.046,3.368 5.641,4.673 8.452,7.048 v 0 c 4.935,4.167 2.499,4.666 -0.461,8.578 v 0 c -5.186,6.85 -1.111,12.613 4.685,19.303 v 0 c 0.586,0.683 1.119,1.354 1.599,2.02 v 0 c -2.664,1.398 -3.38,2.901 -6.334,4.117 v 0 c -0.499,0.206 -1.018,0.371 -1.549,0.505 v 0 c -4.966,-3.823 -11.637,-7.598 -13.98,-13.194" />
            </g>
          </g>
        </g>
      </g>
      <g
         id="g456"
         transform="matrix(0.35277777,0,0,-0.35277777,-154.95084,509.69863)">
        <g
           id="g458">
          <g
             id="g464">
            <g
               id="g466">
              <path
                 inkscape:connector-curvature="0"
                 id="path474"
                 style="fill:url(#linearGradient472-0);stroke:none"
                 d="m 488.675,642.874 c -5.2,-9.487 -0.942,-12.116 8.093,-17.425 v 0 c 9.031,-5.308 2.111,-9.607 -3.462,-14.688 v 0 c 2.04,-0.038 4.253,-0.764 7.141,-1.999 v 0 c 0.561,0.802 1.281,1.604 2.183,2.393 v 0 c 7.392,6.46 13.754,10.827 4.939,18.129 v 0 c -6.553,5.427 -10.646,8.758 -5.641,16.764 v 0 c 0.077,0.128 0.416,0.645 0.5,0.768 v 0 c -2.567,-0.354 -4.816,-0.28 -7.139,0.305 v 0 c -1.318,0.329 -2.373,0.68 -3.253,1.041 v 0 c -1.21,-1.827 -2.44,-3.608 -3.361,-5.288" />
            </g>
          </g>
        </g>
      </g>
      <g
         id="g476"
         transform="matrix(0.35277777,0,0,-0.35277777,-154.95084,509.69863)">
        <g
           id="g478">
          <g
             id="g484">
            <g
               id="g486">
              <path
                 inkscape:connector-curvature="0"
                 id="path494"
                 style="fill:url(#linearGradient492-1);stroke:none"
                 d="m 529.385,665.725 c -3.141,-0.226 -5.545,-1.25 -7.369,-2.37 v 0 c 1.244,-2.241 2.262,-4.98 0.45,-8.186 v 0 c -2.154,-3.813 -6.279,-6.033 -8.476,-9.79 v 0 c -5.414,-9.256 12.39,-10.125 11.031,-18.246 v 0 c -0.648,-3.883 -5.524,-5.516 -7.676,-8.81 v 0 c -2.766,-4.235 -1.936,-5.397 0.224,-6.831 v 0 c 1.582,1.507 3.641,2.974 8.171,3.988 v 0 c -0.187,4.143 5.398,6.102 7.829,11.016 v 0 c 4.214,8.513 -12.765,10.835 -6.444,18.518 v 0 c 3.437,4.176 8.713,5.67 9.733,11.433 v 0 c 0.453,2.562 -0.569,5.483 -2.211,7.79 v 0 c -1.296,0.924 -2.826,1.51 -4.636,1.51 v 0 c -0.205,0 -0.414,-0.007 -0.626,-0.022" />
            </g>
          </g>
        </g>
      </g>
      <g
         id="g496"
         transform="matrix(0.35277777,0,0,-0.35277777,-154.95084,509.69863)">
        <g
           clip-path="url(#clipPath502-1)"
           id="g498">
          <g
             transform="translate(469.3469,645.1134)"
             id="g504">
            <path
               inkscape:connector-curvature="0"
               id="path506"
               style="fill:#005da3;fill-opacity:1;fill-rule:nonzero;stroke:none"
               d="M 0,0 -0.039,-0.02 -0.075,-0.043 C -0.74,-0.524 -1.493,-1.479 -1.297,-3.3 c 0.091,-0.835 0.352,-1.633 0.78,-2.373 0.385,-0.65 1.14,-1.167 2.244,-1.54 L 3.187,-7.664 4.2,-7.965 C 4.719,-8.126 4.924,-8.272 4.999,-8.335 4.952,-8.468 4.586,-8.686 3.64,-8.786 2.666,-8.893 1.529,-8.822 0.269,-8.584 l -0.815,0.156 0.395,-5.133 6.156,0.915 c 0.882,0.124 1.625,0.521 2.202,1.184 0.564,0.651 0.811,1.487 0.711,2.421 -0.065,0.612 -0.286,1.243 -0.653,1.874 -0.389,0.672 -1.192,1.218 -2.388,1.625 L 4.17,-4.998 3.121,-4.67 c -0.703,0.23 -0.925,0.395 -0.991,0.455 -0.04,0.488 0.081,0.756 0.776,0.83 0.932,0.101 2.301,-0.197 4.069,-0.889 L 7.908,-4.639 7.56,0.389 7.071,0.474 C 5.541,0.745 3.983,0.798 2.437,0.63 1.404,0.518 0.584,0.308 0,0" />
          </g>
          <g
             transform="translate(500.3531,643.8898)"
             id="g508">
            <path
               inkscape:connector-curvature="0"
               id="path510"
               style="fill:#005da3;fill-opacity:1;fill-rule:nonzero;stroke:none"
               d="m 0,0 -2.811,-0.845 0.082,-0.633 0.072,-0.398 c 0.09,-0.844 0.037,-2.417 -0.154,-4.685 l -0.389,-4.503 0.815,0.134 3.908,0.653 -0.214,1.621 -0.199,2.533 c -0.029,0.621 -0.031,0.987 -0.027,1.211 0.329,0.058 0.524,0.091 0.908,0.155 0.101,-0.527 0.209,-1.221 0.315,-2.029 l 0.153,-1.49 0.109,-0.928 c 0.14,-0.733 0.917,-0.651 1.292,-0.608 0.786,0.085 1.34,0.19 1.736,0.326 0.506,0.171 0.583,0.71 0.652,1.991 0.05,1.04 0.026,2.014 -0.069,2.899 -0.176,1.652 -0.532,2.562 -1.161,2.947 -0.244,0.161 -0.724,0.362 -2.165,0.45 -0.761,0.045 -1.421,0.034 -2.03,-0.015 -0.011,0.165 0.332,1.504 0.332,1.504 z" />
          </g>
          <g
             transform="translate(528.403,640.7877)"
             id="g512">
            <path
               inkscape:connector-curvature="0"
               id="path514"
               style="fill:#005da3;fill-opacity:1;fill-rule:nonzero;stroke:none"
               d="m 0,0 c 0.693,0.026 1.759,0.065 1.759,0.065 1.168,0.022 1.679,-0.016 1.919,-0.049 0.048,-0.155 0.114,-0.397 0.194,-0.777 0,0 0.022,-0.113 0.047,-0.249 C 3.131,-1.204 2.361,-1.357 1.628,-1.433 L 0.8,-1.505 c 0,0 -0.651,-0.051 -0.655,-0.051 C 0.096,-1.021 0.054,-0.557 0,0 m 0.584,6.579 c 0,0 0.06,0 0.113,0.003 C 0.763,6.382 0.864,5.957 0.97,4.998 1.031,4.421 1.024,4.151 1.013,4.02 0.946,3.997 0.833,3.972 0.625,3.951 c 0,0 -0.326,-0.025 -0.392,-0.027 -0.074,0.68 -0.2,1.867 -0.272,2.538 0.31,0.057 0.623,0.117 0.623,0.117 M -2.915,8.491 -3.393,8.334 -2.102,-5.958 7.171,-3.983 7.04,-2.928 6.84,-1.5 C 6.637,-0.23 6.292,0.865 5.805,1.749 L 5.544,2.003 C 5.112,2.232 4.634,2.397 4.133,2.529 4.362,2.642 4.588,2.756 4.835,2.892 l 0.23,0.206 c 0.236,0.357 0.367,0.816 0.388,1.36 0,0 -0.043,1.841 -0.051,1.919 C 5.371,6.653 5.296,6.967 5.174,7.324 4.96,7.968 4.646,8.409 4.243,8.633 4.237,8.635 3.657,8.988 3.657,8.988 3.35,9.175 3.031,9.281 2.724,9.305 L 2.676,9.309 2.659,9.307 0.686,9.164 C -0.844,8.998 -2.056,8.772 -2.915,8.491" />
          </g>
          <g
             transform="translate(537.7197,645.4636)"
             id="g516">
            <path
               inkscape:connector-curvature="0"
               id="path518"
               style="fill:#005da3;fill-opacity:1;fill-rule:nonzero;stroke:none"
               d="M 0,0 0.972,0.037 C 0.984,0.038 1.549,0.066 1.856,0.085 1.87,0.029 1.887,-0.042 1.9,-0.158 1.932,-0.444 1.933,-1.105 1.794,-2.643 1.78,-2.772 1.77,-2.912 1.309,-2.963 1.053,-2.989 0.795,-2.964 0.539,-2.912 0.492,-2.835 0.411,-2.684 0.3,-2.363 c -0.164,0.489 -0.282,1.037 -0.345,1.631 -0.04,0.356 -0.038,0.581 -0.023,0.721 C -0.038,-0.007 0,0 0,0 M -2.72,1.451 C -3.161,1.038 -3.294,0.29 -3.158,-0.973 c 0.089,-0.818 0.283,-1.78 0.588,-2.856 0.289,-1.022 0.535,-1.717 0.774,-2.195 0.282,-0.553 0.932,-0.742 1.4,-0.845 0.587,-0.121 1.207,-0.144 1.888,-0.071 1.357,0.145 2.356,0.605 2.965,1.364 0.453,0.563 0.775,1.385 0.973,2.511 0.185,0.998 0.219,2.015 0.114,3.018 C 5.442,0.87 5.201,2.14 4.226,2.578 V 2.577 C 4.058,2.651 3.755,2.737 2.868,2.747 2.176,2.763 1.495,2.734 0.833,2.661 -0.898,2.475 -2.061,2.081 -2.72,1.451" />
          </g>
          <g
             transform="translate(547.6359,642.984)"
             id="g520">
            <path
               inkscape:connector-curvature="0"
               id="path522"
               style="fill:#005da3;fill-opacity:1;fill-rule:nonzero;stroke:none"
               d="m 0,0 c 0.422,0.046 0.773,0.05 1.067,0.014 0.006,0 0.035,-0.005 0.047,-0.007 0.007,-0.024 0.081,-0.513 0.081,-0.513 L 1.257,-0.969 C 1.292,-1.302 1.279,-1.481 1.265,-1.574 1.013,-1.618 0.646,-1.709 0.064,-1.869 c 0,0 -0.48,-0.113 -0.807,-0.193 -0.036,0.241 -0.073,0.48 -0.073,0.48 -0.101,0.912 -0.039,1.282 0,1.415 C -0.588,-0.092 -0.331,-0.035 0,0 M -0.528,8.054 -0.755,7.994 -2.316,7.631 C -2.317,7.628 -4.8,7.17 -4.8,7.17 L -4.619,6.497 C -4.468,5.982 -4.28,4.956 -4.046,3.446 l 0.593,-4.439 c 0.217,-2.012 0.215,-2.775 0.174,-3.067 l -0.091,-0.659 0.663,-0.059 c 1.741,-0.156 3.278,-0.164 4.567,-0.027 1.21,0.131 2.847,0.445 3.134,1.659 0.108,0.438 0.184,1.115 0.231,2.06 0.044,1.072 0.034,1.93 -0.041,2.628 C 5.09,2.391 4.926,2.873 4.628,3.147 4.346,3.417 3.901,3.525 3.315,3.461 2.922,3.42 2.284,3.263 1.24,2.953 0.753,2.812 0.397,2.719 0.121,2.652 0.132,3.516 0.15,5.003 0.15,5.003 l 0.088,2.073 0.056,1.209 z" />
          </g>
          <g
             transform="translate(518.9624,644.2168)"
             id="g524">
            <path
               inkscape:connector-curvature="0"
               id="path526"
               style="fill:#005da3;fill-opacity:1;fill-rule:nonzero;stroke:none"
               d="M 0,0 1.205,0.035 C 1.434,0.018 1.541,0.002 1.614,-0.009 1.625,-0.151 1.627,-0.262 1.616,-0.342 1.57,-0.375 1.474,-0.432 1.214,-0.521 0.799,-0.659 0.378,-0.75 -0.076,-0.799 c -0.235,-0.026 -0.37,-0.028 -0.455,-0.022 -0.041,0.116 -0.098,0.277 -0.098,0.277 l -0.101,0.291 c -0.002,0.013 -0.014,0.075 -0.014,0.075 0,0 -0.001,0.033 0,0.048 C -0.615,-0.09 -0.396,-0.044 0,0 m -2.478,2.137 c -0.14,-0.272 -0.332,-0.815 -0.37,-2.361 -0.028,-0.991 0.019,-2.013 0.141,-3.132 0.231,-2.14 0.555,-2.773 0.816,-3.083 0.539,-0.63 1.742,-0.792 4.018,-0.547 l 2.153,0.297 1.33,0.223 0.414,3.909 -0.468,0.166 C 5.344,-2.313 5.067,-2.302 4.638,-2.352 4.592,-2.354 2.371,-2.757 2.371,-2.757 2.087,-2.783 1.763,-3.076 1.814,-3.541 c 0,0 0.027,-0.056 0.038,-0.079 -0.336,-0.018 -1.05,-0.058 -1.521,-0.086 -0.076,0.256 -0.154,0.62 -0.211,0.931 0.126,0.008 2.723,0.43 3.975,0.859 1.387,0.472 1.743,0.676 1.908,0.958 0.002,0.005 0.006,0.011 0.01,0.019 0.009,0.017 0.029,0.034 0.037,0.053 0,0 -0.019,-0.023 -0.024,-0.025 0.062,0.109 0.102,0.255 0.081,0.45 C 6.057,-0.009 5.616,1.358 5.616,1.358 5.218,2.58 4.878,3.279 4.219,3.482 3.514,3.701 2.492,3.72 0.904,3.548 -1.015,3.342 -2.088,2.893 -2.478,2.137" />
          </g>
          <g
             transform="translate(511.6712,643.5872)"
             id="g528">
            <path
               inkscape:connector-curvature="0"
               id="path530"
               style="fill:#005da3;fill-opacity:1;fill-rule:nonzero;stroke:none"
               d="M 0,0 C 0.013,-0.277 0.053,-0.953 0.126,-1.626 0.18,-2.142 0.255,-2.64 0.349,-2.92 0.348,-2.918 0.377,-3.017 0.41,-3.142 c -0.157,0.021 -0.318,0.046 -0.464,0.081 0,0 -0.088,0.033 -0.18,0.067 -0.098,0.253 -0.203,0.607 -0.268,1.211 -0.124,1.147 -0.018,1.542 0.03,1.663 C -0.404,-0.088 -0.259,-0.042 0,0 m 0.691,3.308 v 0 C 0.487,3.286 0.153,3.125 0.08,2.528 -0.172,2.509 -0.506,2.498 -1.02,2.517 -1.946,2.539 -2.462,2.532 -2.758,2.502 -3.922,2.375 -4.297,1.81 -4.401,1.356 c -0.46,-1.94 -0.635,-3.322 -0.535,-4.229 0.105,-0.965 0.512,-1.767 1.214,-2.385 0.39,-0.349 1.109,-0.469 2.475,-0.408 0.002,0 1.268,0.105 2.043,0.173 0.1,-0.951 0.085,-1.7 -0.015,-2.285 -0.258,-0.086 -0.711,-0.185 -1.105,-0.241 0.321,0.916 0.333,0.975 0.314,1.143 l -0.057,0.525 -0.568,0.041 -2.081,0.19 c -0.715,0.079 -1.055,0.103 -1.244,-0.302 -0.189,-0.335 -0.247,-0.799 -0.174,-1.474 0.058,-0.552 0.205,-1.212 0.456,-2.089 0.364,-1.203 0.46,-1.527 1.025,-1.467 0.299,0.043 0.962,0.172 3.446,0.843 3.179,0.857 3.415,1.093 3.562,1.373 0.258,0.37 0.445,1.082 0.205,3.314 L 4.21,-3.45 c -0.019,0.135 -0.041,0.287 -0.058,0.459 -0.12,1.116 -0.192,2.892 -0.15,3.31 0.096,1.074 0.107,1.858 0.039,2.476 L 3.998,3.23 3.571,3.342 C 2.952,3.504 2.037,3.492 0.691,3.308" />
          </g>
          <g
             transform="translate(491.2915,641.4767)"
             id="g532">
            <path
               inkscape:connector-curvature="0"
               id="path534"
               style="fill:#005da3;fill-opacity:1;fill-rule:nonzero;stroke:none"
               d="M 0,0 1.026,0.026 C 1.037,0.029 1.664,0.057 1.982,0.069 2.01,-0.004 2.039,-0.122 2.061,-0.33 2.098,-0.674 2.116,-1.472 1.983,-3.317 1.966,-3.557 1.918,-3.727 1.454,-3.777 1.185,-3.806 0.909,-3.771 0.634,-3.705 0.581,-3.616 0.479,-3.418 0.339,-2.978 0.15,-2.385 0.017,-1.711 -0.062,-0.993 -0.117,-0.479 -0.108,-0.191 -0.087,-0.017 -0.05,-0.01 0,0 0,0 M -2.882,1.523 C -3.313,1.066 -3.434,0.218 -3.279,-1.23 c 0.102,-0.957 0.323,-2.091 0.654,-3.368 0.314,-1.182 0.586,-2.025 0.841,-2.579 0.219,-0.464 0.687,-0.784 1.448,-0.97 0.629,-0.154 1.288,-0.194 2.014,-0.116 1.434,0.156 2.486,0.684 3.119,1.574 0.459,0.642 0.776,1.592 0.972,2.902 0.177,1.17 0.201,2.357 0.075,3.528 C 5.663,1.413 5.227,2.372 4.472,2.76 L 4.471,2.758 C 4.294,2.851 3.969,2.957 3.024,2.983 2.297,3.009 1.57,2.987 0.869,2.91 -0.966,2.711 -2.197,2.257 -2.882,1.523" />
          </g>
          <g
             transform="translate(484.0888,640.0289)"
             id="g536">
            <path
               inkscape:connector-curvature="0"
               id="path538"
               style="fill:#005da3;fill-opacity:1;fill-rule:nonzero;stroke:none"
               d="m 0,0 c 0.41,0.044 0.61,0.009 0.71,-0.02 0.033,-0.107 0.08,-0.326 0.131,-0.788 0.06,-0.573 0.041,-0.846 0.022,-0.978 -0.325,-0.126 -0.659,-0.229 -1.004,-0.266 -0.286,-0.03 -0.501,-0.004 -0.607,0.063 -0.036,0.091 -0.114,0.32 -0.114,0.32 l -0.169,0.9 c -0.036,0.332 -0.023,0.458 -0.013,0.518 C -0.901,-0.178 -0.6,-0.065 0,0 M -4.176,1.892 C -5.231,1.668 -5.517,1.57 -5.711,1.358 L -5.906,1.143 -5.31,-3.793 c 0.35,-3.237 0.385,-4.407 0.354,-4.823 l -0.056,-0.759 3.32,0.36 -0.067,0.629 c -0.192,1.798 -0.351,3.073 -0.488,3.944 0.907,-0.097 1.879,-0.126 2.957,-0.009 1.14,0.124 1.945,0.3 2.462,0.538 0.479,0.215 0.567,0.8 0.612,1.332 0.039,0.556 0.021,1.134 -0.043,1.731 C 3.567,0.754 3.183,1.663 2.529,2.012 1.763,2.421 0.423,2.505 -1.687,2.276 -2.516,2.187 -3.351,2.056 -4.176,1.892" />
          </g>
          <g
             transform="translate(476.549,641.3962)"
             id="g540">
            <path
               inkscape:connector-curvature="0"
               id="path542"
               style="fill:#fff200;fill-opacity:1;fill-rule:nonzero;stroke:none"
               d="M 0,0 C -1.865,0.729 -3.326,1.041 -4.369,0.931 -5.373,0.822 -5.811,0.29 -5.705,-0.666 c 0.033,-0.32 0.511,-0.626 1.422,-0.926 0.927,-0.297 1.848,-0.557 2.749,-0.869 C -0.455,-2.827 0.219,-3.3 0.508,-3.801 0.827,-4.353 1.023,-4.9 1.081,-5.425 1.163,-6.187 0.974,-6.839 0.52,-7.36 0.059,-7.893 -0.553,-8.233 -1.294,-8.339 l -5.485,-0.811 -0.278,3.624 c 1.33,-0.252 2.517,-0.323 3.559,-0.209 1.335,0.143 1.987,0.535 1.943,1.163 -0.023,0.334 -0.441,0.635 -1.26,0.895 -0.823,0.26 -1.653,0.48 -2.463,0.748 -0.977,0.333 -1.609,0.772 -1.899,1.262 -0.378,0.652 -0.615,1.36 -0.696,2.119 -0.133,1.227 0.191,2.116 0.963,2.672 0.505,0.264 1.238,0.455 2.208,0.56 1.483,0.16 2.977,0.109 4.454,-0.153 z" />
          </g>
          <g
             transform="translate(505.8976,639.1949)"
             id="g544">
            <path
               inkscape:connector-curvature="0"
               id="path546"
               style="fill:#fff200;fill-opacity:1;fill-rule:nonzero;stroke:none"
               d="m 0,0 c 0.098,-0.898 0.114,-1.838 0.066,-2.798 -0.049,-0.911 -0.122,-1.392 -0.23,-1.427 -0.36,-0.124 -0.894,-0.221 -1.594,-0.295 -0.545,-0.057 -0.583,0.009 -0.602,0.096 -0.075,0.401 -0.102,1.205 -0.254,2.379 -0.164,1.271 -0.32,2.159 -0.452,2.68 L -5.032,0.296 c -0.08,-0.179 -0.087,-0.775 -0.04,-1.788 0.042,-0.851 0.107,-1.699 0.204,-2.571 0.064,-0.601 0.113,-0.944 0.142,-1.026 -0.936,-0.136 -2.046,-0.32 -3.325,-0.56 0,0 0.122,1.231 0.324,3.698 0.195,2.315 0.246,3.92 0.15,4.804 -0.023,0.206 -0.051,0.379 -0.092,0.51 0.616,0.155 1.399,0.386 2.32,0.694 -0.032,-0.063 -0.044,-0.177 -0.03,-0.31 0.035,-0.32 0.06,-0.65 0.062,-0.998 0.766,0.122 1.619,0.135 2.583,0.082 C -1.776,2.772 -1.142,2.653 -0.863,2.473 -0.437,2.207 -0.149,1.382 0,0" />
          </g>
          <g
             transform="translate(533.0475,639.2636)"
             id="g548">
            <path
               inkscape:connector-curvature="0"
               id="path550"
               style="fill:#fff200;fill-opacity:1;fill-rule:nonzero;stroke:none"
               d="M 0,0 C -1.05,-0.289 -2.036,-0.476 -2.955,-0.575 -3.232,-0.606 -3.598,-0.632 -4.065,-0.666 -4.52,-0.701 -4.859,-0.729 -5.076,-0.75 L -5.343,2.101 C -4.662,2.15 -3.85,2.182 -2.898,2.193 -1.538,2.214 -0.73,2.164 -0.5,2.046 -0.404,1.865 -0.286,1.471 -0.159,0.864 -0.104,0.61 -0.047,0.32 0,0 M -3.515,8.632 C -3.325,8.394 -3.173,7.693 -3.05,6.556 -2.965,5.769 -2.977,5.28 -3.085,5.119 -3.196,4.956 -3.491,4.859 -3.957,4.809 -4.11,4.793 -4.312,4.784 -4.549,4.772 -4.794,4.76 -4.945,4.756 -4.982,4.754 l -0.4,3.715 c 0.57,0.131 0.981,0.202 1.246,0.231 0.343,0.037 0.547,0.019 0.621,-0.068 M -6.183,-3.697 1.818,-1.994 C 1.738,-1.37 1.672,-0.74 1.565,-0.114 1.366,1.147 1.03,2.156 0.604,2.934 -0.021,3.261 -0.718,3.483 -1.51,3.6 -2.375,3.72 -2.817,3.796 -2.854,3.805 -2.218,3.913 -1.303,4.298 -0.113,4.941 0.051,5.187 0.155,5.537 0.17,5.97 0.176,6.15 0.168,6.688 0.132,7.614 0.127,7.902 0.054,8.232 -0.076,8.609 -0.247,9.118 -0.47,9.432 -0.714,9.57 -0.903,9.671 -1.097,9.813 -1.299,9.926 -1.53,10.064 -1.756,10.147 -1.976,10.162 -2.445,10.154 -3.091,10.111 -3.893,10.023 -5.404,9.859 -6.568,9.642 -7.367,9.377 Z" />
          </g>
          <g
             transform="translate(540.1382,642.7273)"
             id="g552">
            <path
               inkscape:connector-curvature="0"
               id="path554"
               style="fill:#fff200;fill-opacity:1;fill-rule:nonzero;stroke:none"
               d="m 0,0 c -0.05,-0.524 -0.392,-0.821 -1.045,-0.891 -0.35,-0.036 -0.716,-0.021 -1.091,0.07 -0.181,0.04 -0.38,0.36 -0.587,0.952 -0.188,0.555 -0.313,1.154 -0.379,1.773 -0.065,0.592 -0.039,1.007 0.068,1.241 0.034,0.089 0.217,0.156 0.543,0.19 0.201,0.022 0.54,0.034 1.033,0.039 0.48,0.018 0.822,0.03 1.02,0.053 C -0.137,3.459 0.044,3.185 0.109,2.614 0.157,2.16 0.121,1.285 0,0 M 1.545,4.701 C 1.394,4.766 1.027,4.809 0.436,4.816 -0.2,4.828 -0.858,4.805 -1.523,4.735 -3.093,4.566 -4.163,4.213 -4.707,3.696 -4.975,3.445 -5.061,2.81 -4.949,1.796 c 0.086,-0.802 0.28,-1.721 0.567,-2.753 0.265,-0.939 0.505,-1.631 0.731,-2.077 0.12,-0.235 0.443,-0.4 0.961,-0.508 0.519,-0.106 1.074,-0.133 1.691,-0.065 1.177,0.127 2.03,0.503 2.539,1.134 0.372,0.465 0.659,1.2 0.845,2.224 C 2.562,0.723 2.588,1.668 2.489,2.587 2.361,3.776 2.05,4.472 1.545,4.701" />
          </g>
          <g
             transform="translate(547.1483,647.9761)"
             id="g556">
            <path
               inkscape:connector-curvature="0"
               id="path558"
               style="fill:#fff200;fill-opacity:1;fill-rule:nonzero;stroke:none"
               d="m 0,0 c -0.054,-1.499 -0.044,-2.537 -0.04,-3.136 0.351,0.026 0.992,0.178 1.941,0.457 0.949,0.278 1.602,0.443 1.965,0.482 0.393,0.041 0.668,-0.01 0.814,-0.148 0.172,-0.158 0.284,-0.57 0.355,-1.209 0.073,-0.687 0.08,-1.524 0.038,-2.529 C 5.028,-6.982 4.956,-7.627 4.861,-8.026 4.712,-8.639 3.847,-9.03 2.276,-9.198 1.03,-9.336 -0.442,-9.327 -2.168,-9.175 c 0.065,0.479 0.009,1.559 -0.17,3.224 -0.152,1.395 -0.358,2.883 -0.601,4.467 -0.239,1.556 -0.432,2.594 -0.586,3.132 0.707,0.122 1.308,0.231 1.814,0.334 C -0.5,2.22 -0.131,2.356 0.102,2.413 0.093,2.152 0.055,1.546 0,0 m 1.627,-4.382 c -0.357,0.043 -0.758,0.037 -1.212,-0.012 -0.42,-0.044 -0.777,-0.119 -1.072,-0.235 -0.336,-0.118 -0.443,-0.8 -0.309,-2.047 0.042,-0.382 0.092,-0.73 0.165,-1.043 0.016,-0.068 0.111,-0.093 0.301,-0.074 0.185,0.021 0.587,0.111 1.216,0.283 0.629,0.179 1.052,0.285 1.273,0.306 0.338,0.038 0.469,0.462 0.379,1.278 -0.018,0.175 -0.053,0.404 -0.099,0.706 -0.045,0.314 -0.076,0.511 -0.09,0.615 -0.017,0.165 -0.195,0.178 -0.552,0.223" />
          </g>
          <g
             transform="translate(485.2605,640.4488)"
             id="g560">
            <path
               inkscape:connector-curvature="0"
               id="path562"
               style="fill:#fff200;fill-opacity:1;fill-rule:nonzero;stroke:none"
               d="m 0,0 c 0.118,-0.093 0.217,-0.489 0.294,-1.193 0.103,-0.96 0.032,-1.491 -0.205,-1.59 -0.416,-0.18 -0.862,-0.302 -1.338,-0.353 -0.551,-0.059 -0.923,0.025 -1.156,0.24 -0.068,0.067 -0.148,0.267 -0.243,0.601 -0.094,0.334 -0.155,0.661 -0.191,1.003 -0.063,0.57 -0.015,0.92 0.147,1.042 0.272,0.207 0.763,0.355 1.446,0.428 C -0.648,0.242 -0.243,0.182 0,0 m 1.735,-3.786 c 0.123,0.055 0.2,0.323 0.244,0.809 0.03,0.484 0.018,1.017 -0.046,1.606 C 1.789,-0.029 1.49,0.765 1.053,0.999 0.416,1.34 -0.864,1.401 -2.795,1.193 -3.645,1.102 -4.455,0.971 -5.227,0.816 -5.942,0.663 -6.342,0.557 -6.416,0.477 c 0.162,-1.183 0.354,-2.744 0.562,-4.655 0.285,-2.656 0.404,-4.295 0.357,-4.939 l 1.934,0.211 c -0.261,2.387 -0.466,3.962 -0.63,4.73 1.044,-0.21 2.273,-0.248 3.661,-0.098 1.071,0.116 1.83,0.282 2.267,0.488" />
          </g>
          <g
             transform="translate(493.904,638.0757)"
             id="g564">
            <path
               inkscape:connector-curvature="0"
               id="path566"
               style="fill:#fff200;fill-opacity:1;fill-rule:nonzero;stroke:none"
               d="m 0,0 c -0.046,-0.618 -0.405,-0.965 -1.095,-1.039 -0.371,-0.039 -0.756,-0.013 -1.157,0.1 -0.192,0.048 -0.409,0.429 -0.632,1.135 -0.21,0.662 -0.347,1.378 -0.425,2.11 -0.077,0.705 -0.056,1.199 0.052,1.478 0.039,0.096 0.227,0.176 0.572,0.214 0.208,0.023 0.567,0.033 1.092,0.033 0.507,0.015 0.868,0.027 1.078,0.048 C -0.195,4.112 0.003,3.782 0.076,3.105 0.133,2.565 0.108,1.526 0,0 M 1.566,5.563 C 1.408,5.641 1.015,5.7 0.391,5.715 -0.285,5.74 -0.98,5.723 -1.68,5.648 -3.341,5.468 -4.467,5.066 -5.036,4.457 -5.316,4.16 -5.398,3.411 -5.267,2.205 c 0.103,-0.952 0.321,-2.051 0.639,-3.275 0.297,-1.117 0.561,-1.942 0.805,-2.473 0.128,-0.283 0.472,-0.485 1.025,-0.621 0.549,-0.136 1.14,-0.17 1.79,-0.1 1.241,0.137 2.14,0.567 2.669,1.31 0.389,0.548 0.682,1.419 0.863,2.628 C 2.696,0.825 2.713,1.947 2.597,3.04 2.444,4.455 2.106,5.283 1.566,5.563" />
          </g>
          <g
             transform="translate(512.8856,639.7446)"
             id="g568">
            <path
               inkscape:connector-curvature="0"
               id="path570"
               style="fill:#fff200;fill-opacity:1;fill-rule:nonzero;stroke:none"
               d="m 0,0 c -0.525,-0.02 -1,0.022 -1.438,0.136 -0.183,0.053 -0.356,0.119 -0.505,0.182 -0.191,0.392 -0.332,0.942 -0.41,1.64 -0.12,1.131 -0.06,1.855 0.19,2.18 0.248,0.212 0.738,0.323 1.489,0.358 C -0.617,4.502 -0.596,4.317 -0.59,3.951 -0.587,3.677 -0.46,1.669 -0.27,1.089 -0.09,0.519 0.007,0.177 0.019,0.072 0.025,0.024 0.012,0 0,0 M 2.193,6.536 C 1.65,6.68 0.766,6.655 -0.438,6.489 -0.498,6.481 -0.562,5.756 -0.623,5.75 -0.966,5.692 -1.518,5.667 -2.262,5.689 -3.076,5.711 -3.633,5.708 -3.91,5.678 -4.548,5.61 -4.918,5.393 -5.005,5.016 -5.441,3.17 -5.615,1.832 -5.524,1.005 c 0.087,-0.804 0.416,-1.462 1,-1.978 0.25,-0.221 0.927,-0.299 2.029,-0.251 0.532,0.023 1.394,0.091 2.59,0.221 0.04,0.004 0.069,-0.182 0.111,-0.564 0.127,-1.178 0.109,-2.099 -0.053,-2.787 -0.049,-0.218 -1.338,-0.461 -1.835,-0.516 -0.176,-0.019 -0.379,-0.031 -0.577,-0.015 -0.201,0.002 -0.284,0.003 -0.25,0.006 0.036,0.006 0.147,0.29 0.356,0.853 0.199,0.562 0.298,0.857 0.293,0.892 -0.035,-0.004 -0.927,0.064 -1.322,0.103 -0.944,0.096 -1.43,0.165 -1.439,0.141 -0.13,-0.217 -0.161,-0.596 -0.101,-1.133 0.057,-0.544 0.21,-1.201 0.434,-1.977 0.206,-0.672 0.311,-1.016 0.346,-1.01 0.419,0.057 1.529,0.331 3.351,0.818 2.023,0.55 3.094,0.916 3.182,1.088 0.257,0.324 0.293,1.305 0.118,2.921 C 2.641,-1.543 2.527,-0.73 2.367,0.253 2.212,1.238 2.097,3.614 2.153,4.19 2.236,5.154 2.257,5.93 2.193,6.536" />
          </g>
          <g
             transform="translate(521.1787,643.5985)"
             id="g572">
            <path
               inkscape:connector-curvature="0"
               id="path574"
               style="fill:#fff200;fill-opacity:1;fill-rule:nonzero;stroke:none"
               d="m 0,0 c -0.04,-0.186 -0.315,-0.367 -0.803,-0.536 -0.452,-0.152 -0.926,-0.254 -1.426,-0.308 -0.536,-0.059 -0.814,0.033 -0.977,0.097 -0.498,0.209 -0.414,1.457 -0.378,1.552 0.072,0.187 0.506,0.325 1.297,0.409 0.468,0.051 0.901,0.06 1.304,0.039 0.437,-0.029 0.704,-0.078 0.82,-0.181 C -0.062,0.979 -0.028,1.13 0.01,0.774 0.049,0.429 0.066,0.264 0.002,-0.012 Z M 3.251,-0.01 C 3.264,-0.022 3.263,-0.009 3.255,0.056 3.205,0.538 3.074,0.855 2.791,1.75 2.421,2.88 2.148,3.354 1.81,3.462 1.164,3.661 0.14,3.651 -1.248,3.503 -2.898,3.323 -3.86,2.963 -4.133,2.432 -4.308,2.092 -4.407,1.387 -4.438,0.341 c -0.023,-0.981 0.026,-1.99 0.14,-3.043 0.161,-1.491 0.39,-2.405 0.672,-2.747 0.366,-0.425 1.519,-0.529 3.463,-0.322 0.619,0.067 1.324,0.169 2.123,0.294 0.293,0.047 0.569,0.102 0.858,0.142 l 0.304,2.934 c -0.109,0.041 -0.323,0.041 -0.638,0.007 0,0 -0.64,-0.114 -2.222,-0.401 C 0.225,-2.799 0.217,-2.827 0.223,-2.888 0.23,-2.928 0.355,-3.023 0.404,-3.162 0.454,-3.284 0.464,-3.454 0.469,-3.494 0.476,-3.557 0.464,-3.585 0.431,-3.587 0.305,-3.616 0.155,-3.632 -0.021,-3.651 c -0.571,-0.061 -1.332,-0.103 -2.283,-0.13 -0.235,0.322 -0.454,1.618 -0.491,1.937 -0.006,0.076 -0.013,0.151 -0.012,0.241 0.293,0.005 0.607,0.028 0.935,0.064 1.142,0.122 2.325,0.393 3.54,0.806 1.101,0.376 1.633,0.613 1.583,0.723" />
          </g>
          <g
             transform="translate(532.7751,661.1972)"
             id="g576">
            <path
               inkscape:connector-curvature="0"
               id="path578"
               style="fill:#005da3;fill-opacity:1;fill-rule:nonzero;stroke:none"
               d="m 0,0 c -0.313,0.211 -0.575,0.321 -1.014,0.3 -1.257,-0.063 -1.561,-1.511 -2.196,-2.502 -0.52,-0.754 -1.127,-1.548 -2.15,-1.17 -0.076,0.047 -0.146,0.076 -0.153,0.155 -0.327,0.521 0.233,2.115 0.254,2.458 -0.082,0.574 -0.023,0.926 -0.18,1.504 -0.164,0.446 -0.478,0.929 -0.929,0.927 -0.543,0.067 -0.91,-0.289 -1.205,-0.791 -0.347,-0.649 0.383,-1.635 0.477,-1.947 0.39,-0.739 0.914,-1.132 0.899,-2.003 -0.034,-0.329 -0.296,-0.439 -0.568,-0.493 -0.908,0.01 -1.71,0.776 -2.534,1.192 -0.62,0.35 -1.543,0.541 -2.062,0.18 -0.446,-0.329 -0.786,-0.977 -0.668,-1.604 0.163,-0.503 0.484,-0.556 0.813,-0.8 0.315,-0.134 0.459,-0.105 0.659,-0.183 0.152,-0.024 0.587,-0.082 1.128,0.011 0.503,0.158 0.986,0.347 1.407,0.526 0.359,0.11 0.897,0.33 1.298,0.324 0.236,-0.022 0.599,0.154 0.772,-0.06 0.183,-0.288 0.239,-0.696 0.127,-1.004 -0.169,-0.367 -1.229,-1.272 -1.77,-1.679 -0.572,-0.368 -1.121,-0.826 -1.53,-1.418 -0.368,-0.54 -0.393,-1.098 -0.26,-1.663 0.068,-0.362 0.438,-0.555 0.72,-0.602 0.786,-0.143 1.138,0.252 1.449,0.613 0.917,1.063 1.133,1.998 1.184,2.276 0.043,0.434 0.249,1.27 0.298,1.439 0.066,0.316 0.086,0.847 0.424,0.989 0.187,0.067 0.36,0.074 0.468,0.016 0.416,-0.25 0.607,-0.559 0.79,-1.011 0,0 1.315,-2.633 2.34,-2.765 0.354,-0.049 0.843,0.155 1.025,0.531 0.22,1.087 -0.613,1.682 -1.283,2.219 -0.656,0.683 -1.857,0.861 -1.92,1.99 0.301,0.838 1.492,0.999 1.815,1.276 0.192,0.095 1.256,0.584 1.399,0.76 0.148,0.105 0.388,0.263 0.574,0.51 C 0.077,-1.267 0.61,-0.605 0,0 m -0.257,-2.618 c -0.486,-0.247 -2.039,-0.85 -2.388,-1.146 -0.346,-0.109 -0.522,-0.056 -0.544,-0.64 0.148,-0.322 0.453,-0.438 0.738,-0.595 0.667,-0.368 1.174,-0.879 1.793,-1.278 0.519,-0.454 0.918,-1.406 0.637,-2.202 -0.203,-0.574 -0.763,-0.976 -1.269,-1.025 -1.485,-0.142 -2.606,1.973 -2.708,2.069 -0.337,0.71 -0.79,1.992 -1.148,1.837 -0.168,-0.149 -0.173,-0.621 -0.182,-0.847 0.006,-0.449 -0.291,-1.486 -0.315,-1.627 -0.127,-0.64 -0.297,-1.188 -0.709,-1.672 -0.578,-0.679 -1.25,-1.416 -2.255,-1.254 -0.505,-0.003 -1.213,0.39 -1.419,0.919 -0.27,0.802 -0.079,1.78 0.382,2.432 0.611,0.864 1.962,1.726 2.01,1.811 0.423,0.321 1.209,0.745 1.269,1.026 0.178,0.82 -1.059,0.163 -1.059,0.163 -0.264,-0.188 -1.733,-0.543 -2.168,-0.632 -0.934,-0.192 -1.944,-0.019 -2.773,0.682 -0.272,0.339 -0.446,1.053 -0.316,1.496 0.07,0.411 0.416,1.157 1.04,1.462 0,0 0.643,0.162 0.931,0.194 0.51,0.008 1.155,-0.183 1.221,-0.268 0.892,-0.315 1.538,-0.991 2.38,-1.307 0.268,-0.121 0.459,0.014 0.46,0.264 -0.109,0.488 -0.734,0.964 -0.855,1.105 -0.488,0.758 -1.11,2.037 -0.622,2.936 0.124,0.326 1.235,1.565 2.389,0.871 1.11,-0.492 1.051,-2.524 1.067,-2.766 -0.061,-0.056 -0.144,-1.178 -0.348,-1.632 -0.041,-0.238 -0.112,-0.341 0.033,-0.58 0.407,-0.262 0.564,0.017 0.859,0.276 0.154,0.168 0.768,1.125 0.914,1.481 0.32,0.524 0.534,1.288 0.991,1.607 0,0 1.779,1.113 2.763,-0.19 C 0.904,0.099 1.038,-0.825 0.977,-1.257 0.781,-1.743 -0.11,-2.554 -0.257,-2.618" />
          </g>
          <g
             transform="translate(470.9107,627.3229)"
             id="g580">
            <path
               inkscape:connector-curvature="0"
               id="path582"
               style="fill:#005da3;fill-opacity:1;fill-rule:nonzero;stroke:none"
               d="m 0,0 15.119,2.062 17.879,0.89 10.294,1.109 6.209,2.174 11.84,0.425 13.025,1.509 5.521,0.97 2.763,-11.326 -1.642,-6.666 -22.882,-1.144 -23.569,-3.514 -16.745,-2.431 -13.801,-0.382 -3.686,1.315 0.946,7.539 -1.254,4.098 z" />
          </g>
          <g
             transform="translate(479.8476,617.3468)"
             id="g584">
            <path
               inkscape:connector-curvature="0"
               id="path586"
               style="fill:#fff200;fill-opacity:1;fill-rule:nonzero;stroke:none"
               d="m 0,0 -0.103,-0.22 0.122,-0.37 0.025,-1.573 -0.808,-1.175 -2.145,-0.636 -1.102,0.274 -0.458,0.28 -0.401,-0.064 -0.68,0.165 -0.21,3.16 -0.183,0.487 2.264,0.175 0.126,-0.968 0.218,-1.057 0.748,0.084 0.377,-0.163 -0.085,1.967 -0.381,0.722 -1.486,0.44 -0.377,0.288 -0.243,-0.097 -1.027,0.301 -0.704,2.68 0.042,2.367 1.054,0.943 1.605,0.539 1.123,-0.306 0.21,-0.189 0.441,0.015 L -1.193,7.837 -0.98,5.166 -0.842,4.802 -1.215,4.775 -2.904,4.543 -2.977,5.428 -3.125,6.321 -4.159,6.131 -4.412,6.274 -4.302,4.379 -3.737,3.852 -1.04,3.116 -0.003,0.681 Z" />
          </g>
          <g
             transform="translate(493.4501,626.6917)"
             id="g588">
            <path
               inkscape:connector-curvature="0"
               id="path590"
               style="fill:#fff200;fill-opacity:1;fill-rule:nonzero;stroke:none"
               d="m 0,0 0.345,-5.159 0.67,-5.516 0.133,-0.598 -2.224,-0.241 -0.099,0.426 -2.157,-0.511 -1.494,1.192 -0.162,1.799 0.057,0.337 -0.133,0.497 -0.553,5.966 -0.302,2.203 2.171,0.285 0.286,-2.326 -0.05,-0.408 0.167,-0.593 0.818,-6.814 0.241,0.241 0.697,0.097 -0.106,1.193 0.127,0.383 -0.21,0.589 -0.168,2.011 -0.673,4.851 -0.149,0.455 2.819,0.274 z" />
          </g>
          <g
             transform="translate(507.968,622.2189)"
             id="g592">
            <path
               inkscape:connector-curvature="0"
               id="path594"
               style="fill:#fff200;fill-opacity:1;fill-rule:nonzero;stroke:none"
               d="m 0,0 -2.172,-0.373 -0.141,1.19 0.082,0.656 -0.178,0.311 -0.252,2.317 -0.428,-0.225 -0.513,-0.097 0.283,-3.517 0.824,-4.938 0.094,-0.533 0.3,-0.7 -2.443,-0.232 -0.793,6.032 0.104,0.326 -0.229,0.601 -0.662,5.05 1.531,0.212 0.472,0.178 0.115,-1.018 0.725,0.674 1.604,0.12 1.196,-1.052 z" />
          </g>
          <g
             transform="translate(536.0184,631.8681)"
             id="g596">
            <path
               inkscape:connector-curvature="0"
               id="path598"
               style="fill:#fff200;fill-opacity:1;fill-rule:nonzero;stroke:none"
               d="m 0,0 0.057,-0.624 0.323,-3.355 0.683,-6.705 0.176,-0.539 -1.448,-0.134 -0.296,0.107 -1.745,-0.292 -0.973,3.369 -0.058,0.519 -0.255,0.548 -1.415,4.888 0.73,-6.316 0.151,-1.295 -0.062,-0.409 0.19,-0.551 0.148,-1.298 -1.889,-0.25 -0.092,1.178 -0.705,7.188 0.068,0.5 -0.229,0.484 -0.509,2.894 1.667,0.138 0.341,0.179 1.719,0.116 0.666,-2.495 0.788,-2.723 0.004,-0.299 0.159,-0.297 1.053,-3.654 -0.927,7.744 -0.31,1.714 2.057,0.31 z" />
          </g>
          <g
             transform="translate(543.5711,624.7791)"
             id="g600">
            <path
               inkscape:connector-curvature="0"
               id="path602"
               style="fill:#fff200;fill-opacity:1;fill-rule:nonzero;stroke:none"
               d="m 0,0 -0.047,-0.392 0.124,-0.281 0.307,-3.04 -2.06,-0.836 -0.515,0.096 -0.404,0.235 -0.303,-0.108 -1.22,0.193 -0.656,4.718 0.115,0.24 -0.224,0.567 -0.107,0.932 -0.252,-0.151 -0.601,-0.104 0.045,0.561 -0.287,1.926 0.929,0.003 -0.331,3.132 2.5,0.305 -0.067,-0.534 0.11,-2.854 1.022,0.153 1.235,0.092 L -0.5,2.547 -0.875,2.521 -1.311,2.611 -1.592,2.456 -2.79,2.353 l 0.053,-1.009 0.568,-3.259 0.15,-0.611 0.299,0.245 0.332,0.126 -0.181,1.432 -0.151,0.893 -0.182,0.344 1.847,0.108 z" />
          </g>
          <g
             transform="translate(550.8655,624.4283)"
             id="g604">
            <path
               inkscape:connector-curvature="0"
               id="path606"
               style="fill:#fff200;fill-opacity:1;fill-rule:nonzero;stroke:none"
               d="m 0,0 -0.1,-0.22 0.124,-0.373 0.022,-1.569 -0.809,-1.176 -2.147,-0.637 -1.101,0.277 -0.456,0.281 -0.4,-0.064 -0.685,0.166 -0.205,3.155 -0.186,0.488 2.262,0.176 0.127,-0.967 0.221,-1.059 0.744,0.087 L -2.205,-1.6 -2.293,0.368 -2.678,1.091 -4.16,1.529 -4.538,1.817 -4.78,1.72 -5.807,2.021 -6.511,4.702 -6.473,7.069 -5.414,8.014 -3.807,8.548 -2.688,8.242 -2.477,8.059 -2.04,8.074 -1.197,7.838 -0.976,5.168 -0.841,4.8 -1.216,4.776 -2.905,4.544 -2.975,5.427 -3.124,6.319 -4.158,6.131 -4.411,6.276 -4.302,4.382 -3.736,3.853 -1.038,3.114 -0.002,0.681 Z" />
          </g>
          <g
             transform="translate(484.2419,622.9972)"
             id="g608">
            <path
               inkscape:connector-curvature="0"
               id="path610"
               style="fill:#fff200;fill-opacity:1;fill-rule:nonzero;stroke:none"
               d="m 0,0 -0.077,-0.412 0.668,-5.604 -0.766,-0.334 -0.666,0.186 -0.386,3.172 -0.234,4.345 0.836,-0.006 0.316,0.229 0.156,-1.348 z m 2.757,-2.441 -0.941,4.175 -0.912,1.607 -2.18,0.345 -1.773,-0.731 -0.698,-4.719 0.404,-2.382 0.204,-0.255 -0.058,-0.602 0.292,-1.7 1.724,-1.984 1.422,0.251 0.544,0.187 -0.107,-0.433 0.51,-1.411 1.178,0.556 0.746,0.089 -0.879,1.611 0.149,1.554 -0.083,0.324 0.179,0.632 z" />
          </g>
          <g
             transform="translate(499.2036,618.2656)"
             id="g612">
            <path
               inkscape:connector-curvature="0"
               id="path614"
               style="fill:#fff200;fill-opacity:1;fill-rule:nonzero;stroke:none"
               d="m 0,0 -1.295,0.045 -0.08,1.651 -0.164,0.715 0.43,-0.038 0.789,0.247 z M 2.918,-2.774 2.714,-2.362 2.438,-0.259 2.321,-0.044 2.389,0.19 1.653,5.839 1.458,7.795 -0.573,9.412 -1.071,9.373 -1.215,9.271 -2.33,9.261 l -1.827,-0.98 0.286,-1.909 0.978,0.394 2.073,0.186 0.294,-1.87 -1.067,-0.283 -0.159,-0.28 -0.44,0.14 -0.889,-0.225 -0.639,-4.13 0.33,-0.644 0.285,-0.159 -0.039,-0.338 1.232,-2.495 2.558,0.768 0.102,-0.358 1.735,0.115 z" />
          </g>
          <g
             transform="translate(512.1981,624.5764)"
             id="g616">
            <path
               inkscape:connector-curvature="0"
               id="path618"
               style="fill:#fff200;fill-opacity:1;fill-rule:nonzero;stroke:none"
               d="m 0,0 -0.71,-0.154 -0.445,-0.07 0.16,0.368 -0.118,1.984 0.866,0.009 z M 2.36,1.635 0.689,4.501 -2.575,4.264 -3.504,1.007 l 0.089,-0.635 0.196,-0.451 -0.085,-0.235 0.795,-5.208 0.996,-1.127 0.327,-0.101 0.042,-0.256 0.729,-0.827 3.091,0.482 -0.414,2.906 -0.422,-0.188 -2.419,0.106 -0.15,1.712 -0.203,0.237 0.615,0.144 2.163,0.336 0.115,0.905 -0.033,0.453 0.165,0.473 z" />
          </g>
          <g
             transform="translate(519.2148,623.8943)"
             id="g620">
            <path
               inkscape:connector-curvature="0"
               id="path622"
               style="fill:#fff200;fill-opacity:1;fill-rule:nonzero;stroke:none"
               d="m 0,0 -1.062,-0.195 -0.491,3.934 1.094,0.232 0.164,-2.253 z M 2.199,0.71 1.854,2.332 1.653,2.729 1.714,2.998 1.391,4.566 -0.426,6.124 -1.772,5.916 -2.08,5.707 -2.268,5.842 -4.087,5.561 l 0.496,-4.054 0.172,-0.382 -0.035,-0.65 0.508,-4.103 0.13,-2.489 -0.092,-0.446 2.672,0.434 -0.1,0.88 -0.143,0.421 0.067,0.236 -0.29,2.359 0.328,-0.238 1.349,0.452 0.839,1.025 z" />
          </g>
          <g
             transform="translate(525.9471,623.1901)"
             id="g624">
            <path
               inkscape:connector-curvature="0"
               id="path626"
               style="fill:#fff200;fill-opacity:1;fill-rule:nonzero;stroke:none"
               d="m 0,0 -1.293,0.042 -0.082,1.652 -0.16,0.715 0.428,-0.038 0.788,0.248 z M 2.925,-2.775 2.719,-2.36 2.442,-0.259 2.322,-0.047 2.388,0.189 1.657,5.842 1.462,7.796 -0.571,9.412 -1.069,9.374 -1.214,9.266 -2.329,9.261 -4.153,8.28 -3.866,6.37 -2.891,6.768 -0.819,6.953 -0.522,5.083 -1.594,4.8 -1.747,4.519 -2.192,4.66 -3.078,4.433 l -0.64,-4.129 0.329,-0.645 0.284,-0.159 -0.04,-0.336 1.237,-2.5 2.554,0.769 0.105,-0.357 1.734,0.114 z" />
          </g>
          <g
             transform="translate(553.0322,635.8042)"
             id="g628">
            <path
               inkscape:connector-curvature="0"
               id="path630"
               style="fill:#005da3;fill-opacity:1;fill-rule:nonzero;stroke:none"
               d="M 0,0 H -0.473 L -0.47,-1.306 H -0.737 V 0 h -0.47 v 0.222 h 1.21 z M 1.115,-0.901 1.548,0.222 H 1.961 V -1.306 H 1.687 L 1.689,-0.063 1.681,-0.064 1.205,-1.306 H 1.019 L 0.543,-0.063 H 0.537 L 0.536,-1.31 0.266,-1.306 v 1.528 h 0.416 z" />
          </g>
        </g>
      </g>
    </g>
  </g>
</svg>
